# xmcd CD database file
#
# Track frame offsets:
#	150
#	18082
#	35736
#	39138
#	54969
#	69563
#	94777
#	106910
#	123842
#	145379
#	179418
#	197899
#
# Disc length: 2841 seconds
#
# Revision: 0
# Processed by: cddbd v1.5.2PL0 Copyright (c) Steve Scherf et al.
# Submitted via: CDex 1.70beta2
#
DISCID=9d0b170c
DTITLE=Eriksson Delcroix - For ever
DYEAR=2014
DGENRE=Country
TTITLE0=Home is where the angels roam
TTITLE1=The sound of you
TTITLE2=Snakes
TTITLE3=At the car graveyard
TTITLE4=The last thing on my mind
TTITLE5=The valley
TTITLE6=Black Jack David
TTITLE7=Nashville Tennessee
TTITLE8=I'm leaving
TTITLE9=Riding on a snake with a botlle of tequila in my hand
TTITLE10=Pretty little souls
TTITLE11=Walking
EXTD=YEAR: 2014
EXTT0=
EXTT1=
EXTT2=
EXTT3=
EXTT4=
EXTT5=
EXTT6=
EXTT7=
EXTT8=
EXTT9=
EXTT10=
EXTT11=
PLAYORDER=
